<svg xmlns="http://www.w3.org/2000/svg" xmlns:xlink="http://www.w3.org/1999/xlink" width="512" height="512"><defs><path id="a" d="M0 0h512v512H0V0Z"/></defs><g fill="none" fill-rule="evenodd"><use xlink:href="#a" fill="#0E172B"/><path fill="#FFF" d="M455.778 265.085c-.04.956-.098 1.907-.152 2.86a207.432 207.432 0 0 1-.473 6.298c-.085.956-.155 1.916-.255 2.869a199.7 199.7 0 0 1-.89 7.274h-.02c-13.51 95.525-94.535 169.3-193.243 171.5l-.017.055c-1.498.035-2.998.059-4.503.059-18.433 0-36.278-2.51-53.225-7.186L316.189 71.091 317.715 66c3.518 1.136 6.98 2.392 10.407 3.715l.359.109c.39.15.771.316 1.16.47.65.257 1.296.524 1.943.786 1.332.544 2.658 1.1 3.977 1.669a209.49 209.49 0 0 1 5.856 2.655c.645.305 1.289.608 1.93.92 1.312.638 2.614 1.292 3.909 1.958.588.302 1.178.598 1.762.905 1.424.75 2.836 1.52 4.24 2.302.432.242.872.475 1.305.721 3.692 2.092 7.31 4.3 10.85 6.616.41.268.812.547 1.22.82 1.075.714 2.153 1.422 3.213 2.157l-.007.022c42.007 29.116 72.317 73.92 82.445 125.95h-58.902c-7.297-26.028-21.84-49.04-41.275-66.779L278.421 396.9c58.775-9.239 105.705-54.567 117.396-112.514h-75.102l17.188-57.358H453.879A201.336 201.336 0 0 1 456 256.17c0 2.99-.089 5.959-.222 8.915ZM308.842 63.552 194.022 446a203.43 203.43 0 0 1-7.212-2.512c-.83-.307-1.648-.644-2.475-.962-1.542-.594-3.088-1.185-4.614-1.814-.96-.398-1.904-.824-2.857-1.235-1.372-.592-2.746-1.18-4.103-1.803-.995-.457-1.974-.938-2.96-1.41-1.293-.618-2.585-1.235-3.862-1.88-1.001-.506-1.988-1.033-2.98-1.555-1.238-.654-2.475-1.305-3.696-1.983-.996-.551-1.98-1.121-2.965-1.688a194.196 194.196 0 0 1-3.556-2.09 218.597 218.597 0 0 1-6.357-4.007c-.975-.64-1.943-1.29-2.907-1.947-.549-.376-1.112-.731-1.657-1.11l.01-.038C97.28 388.94 65.964 340.305 58.007 284.158h-.01c-.025-.176-.04-.355-.064-.531a194.317 194.317 0 0 1-.773-6.282c-.028-.269-.06-.535-.087-.804A201.373 201.373 0 0 1 56 255.927c0-4.48.169-8.918.463-13.323v-.163c.006-.098.017-.194.025-.29.146-2.125.335-4.24.546-6.345.049-.48.082-.965.134-1.442.274-2.545.59-5.078.958-7.593h133.11l-17.23 57.387h-57.673c6.068 29.98 21.561 56.582 43.288 76.554l73.696-245.468c-55.094 8.925-99.698 49.442-114.528 102.27H59.706c17.624-90.395 96.25-158.982 191.362-161.4l.017-.05c1.715-.044 3.437-.064 5.165-.064 3.263 0 6.5.106 9.724.26.67.032 1.34.062 2.01.1 3.157.184 6.297.43 9.414.758.437.046.871.105 1.309.155 2.927.326 5.834.719 8.72 1.17.445.069.892.13 1.335.202 3.074.503 6.122 1.081 9.148 1.721.257.054.52.091.778.147l.31.092c3.363.733 6.704 1.522 10.002 2.42l-.158.527Z"/></g></svg>