<?xml version="1.0" encoding="utf-8"?>
<!-- Generator: Adobe Illustrator 16.2.1, SVG Export Plug-In . SVG Version: 6.00 Build 0)  -->
<!DOCTYPE svg PUBLIC "-//W3C//DTD SVG 1.1//EN" "http://www.w3.org/Graphics/SVG/1.1/DTD/svg11.dtd">
<svg version="1.1" id="Layer_1" xmlns="http://www.w3.org/2000/svg" xmlns:xlink="http://www.w3.org/1999/xlink" x="0px" y="0px"
	 width="500px" height="500px" viewBox="0 0 500 500" enable-background="new 0 0 500 500" xml:space="preserve">
<g>
	<g>
		<path fill="#FFFFFF" d="M193.198,418.086L295.033,78.344c0.001,0,0.001,0,0.002,0l14.033-46.823l6.304-21.026h-0.002l0.197-0.657
			c-4.209-1.146-8.465-2.18-12.757-3.109l-0.059-0.018c-0.176-0.038-0.354-0.069-0.529-0.107c-1.88-0.401-3.765-0.785-5.662-1.143
			c-0.101-0.019-0.199-0.041-0.301-0.06c-2.014-0.378-4.037-0.731-6.07-1.061c-0.225-0.036-0.453-0.073-0.679-0.108
			c-4.062-0.651-8.159-1.202-12.284-1.653c-0.258-0.027-0.515-0.057-0.771-0.083c-2.022-0.215-4.054-0.408-6.091-0.572
			c-0.217-0.018-0.43-0.032-0.646-0.05c-1.896-0.148-3.802-0.278-5.711-0.385c-0.253-0.014-0.504-0.031-0.757-0.045
			c-1.974-0.104-3.955-0.182-5.938-0.239c-0.418-0.012-0.832-0.021-1.248-0.031c-2.018-0.049-4.037-0.081-6.065-0.081
			c-2.031,0-4.055,0.028-6.073,0.077c-0.115,0.002-0.23,0.001-0.346,0.004l-0.002,0.008C125.339,4.176,27.606,89.625,5.701,202.178
			h73.438C97.574,136.402,153.014,85.944,221.5,74.835l-91.611,305.633c-27.013-24.866-46.314-57.983-53.85-95.319h71.732
			l21.418-71.446H3.735c-0.229,1.566-0.441,3.137-0.641,4.711c-0.035,0.277-0.064,0.557-0.099,0.835
			c-0.166,1.348-0.324,2.699-0.47,4.053c-0.015,0.14-0.028,0.281-0.042,0.421c-0.911,8.635-1.391,17.4-1.391,26.278
			c0,85.266,42.884,160.497,108.249,205.352c0.736,0.507,1.47,1.016,2.213,1.514c0.623,0.418,1.253,0.825,1.881,1.237
			c0.674,0.442,1.346,0.891,2.024,1.326c0.645,0.415,1.296,0.819,1.944,1.229c0.668,0.422,1.334,0.846,2.005,1.261
			c0.663,0.408,1.331,0.811,1.998,1.213c0.667,0.402,1.332,0.807,2.003,1.205c0.677,0.401,1.359,0.793,2.041,1.188
			c0.667,0.387,1.333,0.773,2.005,1.153c0.687,0.391,1.378,0.772,2.068,1.155c0.677,0.374,1.353,0.749,2.033,1.118
			c0.695,0.375,1.394,0.746,2.092,1.117c0.682,0.361,1.365,0.72,2.05,1.074c0.704,0.366,1.411,0.727,2.12,1.085
			c0.688,0.349,1.378,0.692,2.07,1.034c0.713,0.354,1.428,0.704,2.146,1.05c0.694,0.333,1.392,0.664,2.09,0.993
			c0.722,0.339,1.445,0.679,2.169,1.011c0.703,0.319,1.407,0.639,2.112,0.953c0.727,0.325,1.454,0.652,2.185,0.972
			c0.717,0.311,1.439,0.617,2.159,0.924c0.725,0.31,1.45,0.616,2.179,0.919c0.737,0.306,1.479,0.602,2.22,0.9
			c0.718,0.288,1.435,0.579,2.154,0.86c0.782,0.307,1.567,0.603,2.351,0.899c0.687,0.262,1.372,0.524,2.061,0.781
			c0.878,0.324,1.761,0.637,2.644,0.951c0.604,0.215,1.204,0.438,1.81,0.647c1.488,0.518,2.98,1.023,4.482,1.514L193.198,418.086
			L193.198,418.086z M496.267,213.7H351.77l-21.421,71.448h93.612c-14.562,72.189-73.072,128.647-146.311,140.155l91.821-306.334
			c24.219,22.095,42.324,50.781,51.416,83.207h73.39c-12.619-64.812-50.374-120.634-102.717-156.901l0.005-0.01
			c-0.212-0.146-0.43-0.285-0.642-0.43c-1.67-1.151-3.353-2.284-5.053-3.393c-0.331-0.217-0.665-0.428-0.999-0.643
			c-1.73-1.118-3.472-2.22-5.231-3.295c-0.172-0.104-0.341-0.209-0.513-0.313c-1.765-1.073-3.547-2.12-5.339-3.15
			c-0.363-0.208-0.722-0.418-1.084-0.624c-1.759-1-3.534-1.975-5.321-2.932c-0.448-0.241-0.896-0.479-1.347-0.717
			c-1.77-0.935-3.55-1.849-5.343-2.742c-0.441-0.22-0.886-0.435-1.328-0.651c-1.844-0.903-3.698-1.794-5.568-2.653
			c-0.299-0.137-0.6-0.269-0.898-0.405c-1.729-0.786-3.469-1.549-5.217-2.298c-0.406-0.172-0.81-0.351-1.215-0.521
			c-1.859-0.783-3.734-1.539-5.618-2.278c-0.276-0.108-0.548-0.226-0.823-0.334l-0.141-0.042c-4.367-1.693-8.79-3.271-13.272-4.721
			l-20.545,68.543L204.222,421.445h-0.001l-20.535,68.515c21.114,5.824,43.347,8.948,66.312,8.948
			c129.728,0,236.259-99.252,247.846-225.959c0.051-0.553,0.1-1.104,0.146-1.655c0.092-1.088,0.183-2.174,0.263-3.267
			c0.112-1.567,0.214-3.137,0.298-4.715c0.032-0.641,0.059-1.282,0.087-1.926c0.061-1.316,0.11-2.633,0.149-3.953
			c0.019-0.602,0.035-1.203,0.049-1.806c0.041-1.872,0.071-3.747,0.071-5.629C498.908,237.668,498,225.55,496.267,213.7z"/>
	</g>
</g>
</svg>
