<svg xmlns="http://www.w3.org/2000/svg" viewBox="0 0 314 177"><title>AMC</title><path d="M72.15 48.354c-25.29 0-33.039 15.96-33.039 24.787H56.56c.594-4.665 4.937-10.027 16.182-10.027 11.448 0 15.928 7.196 15.928 16.296h-8.51c-28.424 0-44.457 7.877-44.457 25.363 0 12.486 12.295 23.604 28.273 23.604 10.061 0 20.91-4.79 24.642-7.836l.256 5.821h16.905V83.376c0-21.645-8.64-35.022-33.63-35.022m10.57 44.681h5.644v4.302c0 8.975-8.267 15.623-20.836 15.623-7.675 0-13.576-2.278-13.576-7.675 0-7.428 5.329-12.25 28.768-12.25m32.976 33.321v-76.37h27.285l14.116 55.479 14.13-55.478h27.26v76.369h-17.792V71.348l-15.526 55.008H148.78l-15.39-54.89v54.89zm146.362-28.649h17.365c-2.574 14.44-15.513 30.705-35.861 30.705-25.636 0-36.9-22.432-36.9-39.843 0-23.597 14.743-40.162 36.764-40.162 19.344 0 32.925 14.192 35.77 30.613h-17.048c-1.988-6.319-8.101-14.85-18.722-14.85-11.966 0-20.123 12.043-20.123 24.034 0 14.4 9.71 24.353 20.078 24.353 9.478 0 16.411-7.425 18.677-14.85"/><path d="M0 0v176.042h313.344V0zm5.652 5.653h302.04v164.74H5.652z"/></svg>