<svg xmlns="http://www.w3.org/2000/svg" xml:space="preserve" viewBox="0 0 165.4 50.8"><path d="M39.9 20.2C37.8 25 32.7 28 27.6 28c-7.7 0-13.9-6.3-13.9-13.6C13.7 7.2 19.8 1 27.5 1c4.4 0 10 2.2 12.6 7.9h-5.6c-1.9-2.1-4.2-3.4-7.1-3.4-4.3 0-8.7 3.8-8.7 9 0 4.9 4.1 9.1 8.9 9.1 3.6 0 5.5-2 6.7-3.3h5.6zM50.4 6.7c6 0 11 4.6 11 10.7 0 5.8-5 10.5-11 10.5-6.1 0-11-4.7-11-10.5 0-6.1 5-10.7 11-10.7m0 17.3c4 0 7.1-3.1 7.1-6.7 0-3.7-3.2-6.7-7.1-6.7s-7.1 3-7.1 6.7c0 3.6 3.1 6.7 7.1 6.7M80.3 7.1l7.9.1v3.5h-3.9v16.8h-4zm-1.1 0h-7.9v3.5h4v11.3h-.1L66.5 7.1h-4.4v20.4H66V12.7h.1l8.8 14.8h4.4zm9.8 0h6.5c2.4 0 3.9.4 5.1 1.4 1.2.9 2.5 2.6 2.5 4.9 0 1.3-.5 3.5-2 4.9-1.3 1.2-2.5 1.4-3.5 1.7l5.7 7.5h-4.7L93 19.7h-.1v7.8H89zm3.9 9.8h2.5c3.2 0 3.8-2.1 3.8-3.1 0-1.1-.7-3.1-3.8-3.1h-2.5zm21.2-10.2c6 0 11 4.6 11 10.7 0 5.8-5 10.5-11 10.5-6.1 0-11-4.7-11-10.5 0-6.1 5-10.7 11-10.7m0 17.3c4 0 7.1-3.1 7.1-6.7 0-3.7-3.2-6.7-7.1-6.7-4 0-7.1 3-7.1 6.7 0 3.6 3.1 6.7 7.1 6.7M126 7.1h3.9v16.8h6.4v3.5h-10.4V7.1zM1.4 23.2h14.5v4.5H6.4v6.4h9.1v4.5H6.4v6.1h9.5v4.5H1.4zm15.1 5.6H21l8.7 14.8h.1V28.8h3.9v20.4h-4.4l-8.8-14.9h-.1v14.8h-3.9zm26.5 10h13.8v.4c0 5.8-5.3 10.3-11.2 10.3-6 0-11.4-4.5-11.4-10.6 0-6 5.3-10.6 11.2-10.6 5.3 0 9.2 3.5 10.2 6.4h-4.7C50 33.4 48 32 45.3 32c-4.8 0-7.2 3.8-7.2 6.9 0 3 2.4 6.9 7.4 6.9 2.6 0 5-1.2 6.2-3.6h-8.8zm14.2-10h3.9v20.4h-3.9zm4.9 0h4.5l8.7 14.8h.1V28.8h3.9v20.4h-4.5L66 34.3h-.1v14.8H62V28.8zm18.2 0h11.4v3.5h-7.4v5h7.1v3.5h-7.1v4.8h7.4v3.5H80.3zm12.3 0H104v3.5h-7.4v5h7.1v3.5h-7.1v4.8h7.4v3.5H92.6zm12.2 0h6.5c2.4 0 3.9.4 5.1 1.4 1.2.9 2.5 2.6 2.5 4.9 0 1.3-.5 3.5-2 4.9-1.3 1.2-2.5 1.4-3.5 1.7l5.7 7.5h-4.7l-5.6-7.8h-.1v7.8h-3.9zm3.9 9.7h2.5c3.2 0 3.8-2.1 3.8-3.1 0-1.1-.7-3.1-3.8-3.1h-2.5zm10.4-9.7h3.9v20.4h-3.9zm4.9 0h4.5l8.7 14.8h.1V28.8h3.9v20.4h-4.4l-8.9-14.9h-.1v14.8h-3.9zm26.5 10h13.8v.4c0 5.8-5.3 10.3-11.2 10.3-6 0-11.4-4.5-11.4-10.6 0-6 5.3-10.6 11.2-10.6 5.3 0 9.2 3.5 10.2 6.4h-4.7c-.9-1.3-2.9-2.7-5.6-2.7-4.8 0-7.2 3.8-7.2 6.9 0 3 2.4 6.9 7.4 6.9 2.6 0 5-1.2 6.2-3.6h-8.8v-3.4zm10.7 9.6c0-.7.6-1.3 1.3-1.3s1.3.5 1.3 1.3c0 .7-.6 1.3-1.3 1.3-.7-.1-1.3-.6-1.3-1.3m1.3 1c.6 0 1-.4 1-1s-.4-1-1-1-1 .4-1 1 .4 1 1 1m-.2-.3h-.2v-1.4h.6c.3 0 .5.1.5.4s-.2.4-.4.4l.4.6h-.2l-.4-.6h-.3zm.2-.8c.2 0 .4 0 .4-.2s-.2-.2-.3-.2h-.3v.4z" style="fill:#0872b9"/></svg>