<svg xmlns="http://www.w3.org/2000/svg" viewBox="0 0 1024.219 210.087"><path fill="#1bdbdb" d="M203.517 9.601c-24.52-15.32-56.8-11.67-85.59 6.42-28.7-18.09-61-21.74-85.49-6.42-38.74 24.21-43.45 86.56-10.51 139.27 24.28 38.86 62.25 61.63 96.05 61.21 33.8.42 71.77-22.35 96.05-61.21 32.9-52.71 28.23-115.06-10.51-139.27m-163.78 128.14a126.3 126.3 0 0 1-15.2-34.8 99.5 99.5 0 0 1-3.3-32.81c1.47-19.48 9.4-34.65 22.32-42.72s30-8.56 48.19-1.34c2.73 1.09 5.43 2.35 8.11 3.74a149 149 0 0 0-26.12 31.4c-20 32-26.1 67.61-19.12 96a129 129 0 0 1-14.88-19.47m171.69-34.81a126.6 126.6 0 0 1-15.2 34.8 130.4 130.4 0 0 1-14.88 19.51c6.24-25.45 2-56.63-13.3-85.87a3.86 3.86 0 0 0-5.53-1.5l-47.7 29.8a3.9 3.9 0 0 0-1.24 5.38l7 11.19a3.89 3.89 0 0 0 5.37 1.24l30.92-19.32c1 3 2 6 2.75 9a99.5 99.5 0 0 1 3.31 32.77c-1.47 19.47-9.4 34.64-22.32 42.72a43.6 43.6 0 0 1-22.11 6.4h-.99a43.57 43.57 0 0 1-22.11-6.4c-12.93-8.08-20.86-23.25-22.33-42.72a99.8 99.8 0 0 1 3.3-32.81 129.85 129.85 0 0 1 39.82-63.73 99.7 99.7 0 0 1 28-17.34c18.14-7.22 35.25-6.74 48.18 1.34s20.85 23.24 22.32 42.72a99.8 99.8 0 0 1-3.26 32.82m246.22-23.27c-25.08 0-45.35 19.58-45.35 44.49 0 24.74 20.27 44 45.35 44 25.25 0 45.52-19.23 45.52-44 0-24.9-20.24-44.48-45.52-44.48Zm0 65.23c-11.56 0-20.36-9.35-20.36-20.91s8.8-21.05 20.36-21.05c11.73 0 20.53 9.52 20.53 21.08s-8.8 20.92-20.53 20.92Zm102.07-99.4h-46.15a3.7 3.7 0 0 0-3.77 3.78v112.51a3.74 3.74 0 0 0 3.77 4h46.15c36.93 0 62.59-24.56 62.59-60.29 0-35.95-25.66-60-62.59-60m1.09 96.53h-25.25v-72.83h25.25c20.44 0 34.53 15.29 34.53 36.25 0 20.61-14.09 36.58-34.53 36.58m153.36-59.94h-17.35a3.91 3.91 0 0 0-3.6 3.78v5.15c-3.95-6.53-12.88-11.34-24-11.34-21.64 0-41.91 17-41.91 44.15 0 27 20.09 44.31 41.74 44.31 11.16 0 20.27-4.8 24.22-11.33v5.32a3.63 3.63 0 0 0 3.6 3.61h17.35a3.53 3.53 0 0 0 3.61-3.61v-76.26a3.67 3.67 0 0 0-3.66-3.78m-40.36 63c-11.49 0-20.12-8.83-20.12-21.08s8.63-21.07 20.12-21.07 20.12 8.81 20.12 21.06-8.62 21.08-20.12 21.08Zm137.75-99.59h-17.35a3.66 3.66 0 0 0-3.77 3.61v41.57c-4-6.19-13.06-11-24.39-11-21.48 0-41.4 17-41.4 44.15 0 27 20.09 44.31 41.74 44.31 11.16 0 19.58-4.8 24.22-11.33v5.32a3.62 3.62 0 0 0 3.6 3.61h17.35a3.52 3.52 0 0 0 3.61-3.61v-113a3.52 3.52 0 0 0-3.61-3.63m-40.36 99.8c-11.44 0-20-8.92-20-21.3s8.59-21.3 20-21.3 20 8.92 20 21.3-8.55 21.3-20 21.3m137.73-99.8h-17.32a3.67 3.67 0 0 0-3.78 3.61v41.57c-3.95-6.19-13.06-11-24.39-11-21.48 0-41.4 17-41.4 44.15 0 27 20.1 44.31 41.74 44.31 11.17 0 19.58-4.8 24.22-11.33v5.32a3.63 3.63 0 0 0 3.61 3.61h17.32a3.51 3.51 0 0 0 3.6-3.61v-113a3.51 3.51 0 0 0-3.6-3.63m-40.36 99.8c-11.45 0-20-8.92-20-21.3s8.59-21.3 20-21.3 20 8.92 20 21.3-8.53 21.3-19.97 21.3Zm135.36-57.36-25.89 88.79c-5 15.8-16.15 25.25-33.5 25.25-7.89 0-15.07-1.61-20.7-4.83-3.28-1.87-6-3.58-6-6.32 0-1.7.55-2.58 1.55-4.17l5.14-7.7c1.45-2.15 2.52-2.85 4.08-2.85a5.93 5.93 0 0 1 3.42 1.19c3.23 2.09 6.23 3.89 10.8 3.89 5.34 0 9.42-1.71 11.62-8.07l2.22-7.37h-10.48a4.6 4.6 0 0 1-4.64-3.61l-23.17-74.2c-.86-2.92-.07-5.84 4.22-5.84h18.25c2.23 0 3.79.76 4.77 3.95l17.11 59.75 16-59.75c.51-2.06 1.89-3.95 4.64-3.95h17.31c3.41-.01 4.44 2.39 3.25 5.84m-598.17 26.41v47.43a3.86 3.86 0 0 1-3.92 3.92h-14.32a3.85 3.85 0 0 1-3.92-3.92v-12.45c-9.09 11.48-24.9 18.71-42.78 18.71-33.58 0-59.82-25.26-59.82-61.22 0-37.37 28.33-63.13 64.12-63.13 26.42 0 47.54 11.36 56.92 34.21a5.2 5.2 0 0 1 .43 1.91c0 1.08-.71 1.9-3 2.69l-16.72 6.44a4.3 4.3 0 0 1-3.16.05 4.84 4.84 0 0 1-2-2.29c-6-11.41-16.68-19.16-33.12-19.16-21.32 0-36.59 16.65-36.59 38.24 0 20.93 13 38.14 37.2 38.14 12.73 0 22.88-6 27.61-12.59h-15.1a3.86 3.86 0 0 1-3.92-3.92v-12.89a3.86 3.86 0 0 1 3.92-3.92h44.25a3.73 3.73 0 0 1 3.92 3.75m598.64-49.82v-1.15a.33.33 0 0 1 .08-.22.32.32 0 0 1 .21-.08h7.31a.3.3 0 0 1 .21.08.33.33 0 0 1 .08.22v1.15a.32.32 0 0 1-.08.21.3.3 0 0 1-.21.08h-2.67v7.21a.31.31 0 0 1-.3.3h-1.38a.27.27 0 0 1-.2-.09.3.3 0 0 1-.09-.21v-7.21h-2.67a.27.27 0 0 1-.29-.29m12.78-1.19 2 4.63 2-4.63a.4.4 0 0 1 .16-.2.54.54 0 0 1 .27-.06h2.32a.27.27 0 0 1 .29.28v8.68a.27.27 0 0 1-.28.29h-1.3a.3.3 0 0 1-.21-.08.26.26 0 0 1-.08-.21v-6.55l-2.15 4.76a.5.5 0 0 1-.16.23.5.5 0 0 1-.27.06h-1.06a.5.5 0 0 1-.26-.06.45.45 0 0 1-.16-.23l-2.14-4.76v6.55a.274.274 0 0 1-.28.29h-1.33a.274.274 0 0 1-.27-.29v-8.68a.27.27 0 0 1 .29-.28h2.25a.53.53 0 0 1 .26.06.4.4 0 0 1 .11.2"/></svg>