<svg xmlns="http://www.w3.org/2000/svg" viewBox="0 0 1000 579.402"><path d="M978.721 85.686C967.476 70.598 923.018 36.773 874.58 0c1.175.965 2.35 1.912 3.491 2.895.123.123.28.245.386.368q1.632 1.422 3.263 2.895c.176.14.316.298.474.456a84 84 0 0 1 3.158 2.965l.368.369a133 133 0 0 1 6.176 6.438c.175.14.298.316.439.456.93 1.053 1.86 2.106 2.772 3.176l.473.579a89 89 0 0 1 2.65 3.246c.14.175.28.35.368.49a98 98 0 0 1 2.684 3.51c4.404 5.895 3.895 9.21.527 12.07-3.387 2.825-104.6 86.879-108.704 90.142-4.158 3.263-7.632 1.053-9.07-.28-13.966-12.895-29.054-17.545-51.282-13.141-35.86 7.035-66.774 46.422-65.668 85.177l.035.772c1.122 39.913 33.755 59.089 69.633 52.001a81 81 0 0 0 2.386-.509c.631-8.105 1.543-12.018 1.543-12.018 5.983-35.684 34.177-64.264 64.528-70.211 18.264-3.615 31.685-1.036 43.633 7.122.157.123 7.579 5.966 7.614 6 1.473 1.334 4.895 3.562 9.07.281l112.3-88.984c1.685-1.333 2.773-3.368 2.773-5.65.052-1.947-.685-3.648-1.878-4.93"/><path d="m998.564 313.462-80.932-64.159-.035.018c.176.14.351.333.492.509 0 .017.017.017.017.052.14.176.28.369.369.562 0 .017.017.035.035.052.087.21.175.421.228.632v.035c.438 1.614.017 3.65-.685 5.614-.017.018-.017.053-.035.105-.087.246-.193.474-.28.72-.018.052-.035.122-.07.193-.106.21-.176.438-.299.649-.017.07-.052.158-.087.245a4 4 0 0 0-.264.58c-.052.087-.087.175-.158.28-.07.158-.14.35-.228.509-.07.123-.105.245-.158.35-.087.124-.438.86-.56 1.07-32.458 64.546-96.722 124.723-181.233 141.548-16.912 3.368-32.263 4.93-46.106 4.772-95.861.28-164.793-64.02-167.336-178.443l-.018-1.193c-1.175-58.422 13.035-109.107 38.878-150.09.175-.299.368-.614.561-.93-8.561-6.79-67.492-53.23-69.352-54.668 1.263 1.123 2.088 2.755 2.088 4.597V151.81c0 3.105-2.28 5.667-5.281 6.123l-126.494 20.702h-.017l.017.053a3.16 3.16 0 0 0-3.158 3.175l-.017-.017v52.79h.017a3.156 3.156 0 0 0 3.158 3.158v.035S468.308 220.32 468.8 220.32a6.19 6.19 0 0 1 6.193 6.193V349.27a6.175 6.175 0 0 1-5.193 6.106l-108.16 17.667h-.018l.018.035c-1.562 0-2.86 1.158-3.106 2.649v77.054a6.183 6.183 0 0 1-5.596 6.176s-124.617 20.439-138.301 22.579c-.176.035-.351.053-.509.07-.439.07-.684.105-.72.105a6.18 6.18 0 0 1-6.192-6.193V123.073L149.898 77.93s.035.018.087.07a6.13 6.13 0 0 1 2.316 4.825v403.64a6.2 6.2 0 0 1-5.035 6.088L4.65 515.87q-.631.158-1.316.158a6.06 6.06 0 0 1-3.333-1l78.633 62.37c1.632 1.263 2.825 2.157 4.544 1.982.123 0 172.074-28.14 172.074-28.14 2.912-.51 5.123-3.036 5.123-6.089v-24.597l29.158 23.176c2.088 1.632 4.334 1.246 4.334 1.246l140.669-23a6.19 6.19 0 0 0 5.193-6.106v-78.72a3.18 3.18 0 0 1 2.28-2.86l.808-.141h.053l126.125-20.65a6.19 6.19 0 0 0 5.158-6.122V375.99c48.492 46.966 118.792 79.37 118.844 79.388 34.387 16.438 76.493 20.737 122.862 11.509 84.51-16.825 148.6-76.651 181.04-141.179 1.754-3.42 4.982-9.561 1.666-12.246"/></svg>