<svg xmlns="http://www.w3.org/2000/svg" viewBox="0 0 121 28"><title>Graphic</title><g fill="none"><path fill="#f2efef" d="m35.518 3.02.886-2.104a.13.13 0 0 1 .12-.08q5.08-.016 10.097.122.18.005.357.026.04.005.03.043l-.576 2.002a.07.07 0 0 1-.066.051 6 6 0 0 1-.338.004q-5.246-.105-10.478-.016a.04.04 0 0 1-.029-.015.03.03 0 0 1-.003-.032zm-13.416.611 1.222-2.29a.14.14 0 0 1 .116-.074q5.635-.35 11.282-.41a.04.04 0 0 1 .033.017.04.04 0 0 1 .004.038l-.88 2.096a.16.16 0 0 1-.143.096 217 217 0 0 0-11.607.568.027.027 0 0 1-.03-.026zm25.92-.553.559-1.983a.1.1 0 0 1 .095-.068q5.901.211 11.795.605.096.006.084.101l-.252 1.86q-.009.06-.07.056a342 342 0 0 0-12.175-.523.04.04 0 0 1-.037-.031zM21.397 1.445l-1.284 2.34a.15.15 0 0 1-.116.074 110 110 0 0 0-8.323 1.05c-2.118.35-4.279.805-6.323 1.465q-.03.01-.028-.022c.205-2.326 1.556-2.841 3.518-3.43q.332-.101 1.253-.236c3.752-.545 7.493-.99 11.278-1.277a.03.03 0 0 1 .024.01.02.02 0 0 1 0 .026zm52.643 3.33a317 317 0 0 0-12.229-1.027q-.073-.005-.064-.077l.256-1.895q.007-.04.045-.037 5.987.411 11.954 1.044a.09.09 0 0 1 .08.087q.003.91 0 1.839a.08.08 0 0 1-.021.059.03.03 0 0 1-.02.007zm1.612-1.797c4.457.528 8.89 1.181 13.293 2.058a.11.11 0 0 1 .087.084l.384 1.659q.012.051-.04.042a242 242 0 0 0-13.657-1.864.07.07 0 0 1-.064-.069l-.05-1.867q0-.009.003-.018a.04.04 0 0 1 .044-.025M12.6 17.665C10.078 17.03.882 14.577.512 11.515.058 7.762 12.708 6.118 15.19 5.803c5.854-.743 11.764-1.104 17.661-1.255 11.893-.305 23.825.126 35.677 1.135a285 285 0 0 1 13.514 1.474q4.138.556 7.13 1.078c6.039 1.053 11.999 2.2 17.725 4.284q.061.022-.004.022-2.629 0-5.275.01c-.862.002-1.569.003-2.42-.112a304 304 0 0 0-10.579-1.246C74.586 9.79 60.448 9.127 46.344 9.267c-6.106.06-12.213.303-18.293.885-3.169.303-6.33.743-9.345 1.427q-.646.146-1.415.382c-1.13.345-4.797 1.404-3.806 3.295a.1.1 0 0 1 .002.094c-.156.311-.179.676-.283.963q-.236.65-.497 1.348a.04.04 0 0 1-.05.027.04.04 0 0 1-.018-.01.1.1 0 0 0-.04-.013zm87.434-9.752c1.839.576 3.658 1.228 5.397 2.06.273.13.493.518.64.768q.017.03-.016.019c-4.837-1.636-9.859-2.747-14.883-3.62a.09.09 0 0 1-.07-.064l-.407-1.619q-.011-.04.032-.032 4.708 1.049 9.307 2.488"/><path fill="#f2efef" d="M20.355 22.326c.067-.265-.111-.353-.344-.352q-2.49.002-4.979-.003-.474 0-1.088-.166c-1.23-.328-1.177-1.39-.782-2.354a489 489 0 0 1 1.426-3.44q.26-.62.608-1.196c1.005-1.663 2.92-1.535 4.614-1.536q3.905-.003 7.834.002c.083 0 .153.059.169.14a.33.33 0 0 1-.032.183 455 455 0 0 1-1.315 3.182q-.162.384-.568.383a2172 2172 0 0 0-6.754-.007c-.548 0-1.175 1.256-.516 1.256q2.36.003 4.721-.001c1.325-.003 2.849.3 2.384 2.03q-.137.51-.343 1a385 385 0 0 1-1.492 3.519c-.743 1.705-1.893 2.17-3.69 2.178q-4.79.02-9.58.017c-.206 0-.345-.125-.258-.334q.68-1.642 1.37-3.282c.115-.275.358-.307.655-.307h7.063c.538 0 .785-.465.897-.912M31.748 17.2q.017-.038-.025-.038H27.99a.23.23 0 0 1-.187-.1.22.22 0 0 1-.021-.21 585 585 0 0 1 1.309-3.144c.141-.338.316-.428.696-.428q6.008-.004 12.019 0c.086 0 .159.064.17.15a.4.4 0 0 1-.039.205 1044 1044 0 0 1-1.331 3.2q-.14.338-.544.335-1.742-.015-3.483-.007a.06.06 0 0 0-.057.038l-3.989 9.607c-.126.305-.338.352-.669.352q-1.916.003-3.833 0c-.207 0-.374-.101-.278-.333Q29.751 22 31.748 17.2m16.016 6.043h-4.106a.034.034 0 0 0-.034.023l-1.488 3.563c-.161.386-.541.33-.902.331q-2.655.005-3.464 0c-.217-.002-.237-.218-.165-.392q2.272-5.483 4.55-10.962c.548-1.316 1.335-2.248 2.817-2.43q.794-.1 1.293-.1 3.675 0 7.349.006.37 0 .904.196c1.257.46 1.252 1.586.807 2.66q-2.22 5.355-4.442 10.708c-.108.26-.35.314-.633.314l-3.67.005c-.237.001-.344-.152-.252-.371a317 317 0 0 0 1.464-3.51q.017-.04-.028-.04zm-2.755-3.351a.2.2 0 0 0-.015.055.02.02 0 0 0 .02.02l4.115.002q.016 0 .027-.009a.05.05 0 0 0 .018-.022q.514-1.232 1.018-2.465c.109-.268-.101-.311-.292-.311h-3.175c-.407 0-.594.038-.749.412q-.481 1.159-.967 2.318m24.683-3.242a317 317 0 0 1-2.992 7.213c-.395.92-.983 1.938-1.759 2.51-.917.678-2.09.79-3.208.79q-4.672 0-9.33-.003a.23.23 0 0 1-.23-.206.2.2 0 0 1 .017-.11l5.496-13.227c.12-.288.378-.337.69-.338q4.78-.003 9.56.001.093.001.455.05c1.842.254 1.849 1.95 1.301 3.32m-8.955.578-2.471 5.977a.03.03 0 0 0 .002.023.03.03 0 0 0 .021.011q1.725-.002 3.465-.008.54-.001.737-.473a3491 3491 0 0 0 2.077-4.967q.11-.262.109-.36-.002-.285-.337-.282-1.767.01-3.507.015a.11.11 0 0 0-.096.064m10.824 9.098c-.193.465-.228.833-.848.834q-1.833.003-3.666 0c-.198 0-.337-.13-.255-.33q2.744-6.607 5.492-13.214c.144-.348.46-.336.843-.336q1.788-.002 3.573.001c.082 0 .15.06.161.142a.6.6 0 0 1-.052.293 11549 11549 0 0 0-5.248 12.61m19.927-12.739c-1.516 3.702-3.144 7.707-4.59 11.085-.55 1.283-1.348 2.209-2.803 2.391q-.809.102-1.422.101l-6.874-.002c-.937 0-2.09-.237-2.291-1.312-.112-.597.088-1.18.355-1.825q2.16-5.215 4.327-10.428c.105-.251.362-.317.638-.317q1.882-.002 3.768.001a.173.173 0 0 1 .17.203 1 1 0 0 1-.059.188q-1.868 4.508-3.74 9.014c-.098.233-.14.549.23.55q1.57.003 3.141.002c.557-.001.696-.245.904-.743l3.683-8.839c.128-.308.331-.376.67-.377q1.858-.004 3.756.002c.09 0 .164.068.17.157q0 .079-.033.15zm6.449 6.035q.212-.369.445-.724 1.725-2.64 3.455-5.28a.75.75 0 0 1 .67-.354q3.042.015 6.081.018c.045 0 .089.018.12.051a.16.16 0 0 1 .046.123 1 1 0 0 1-.079.32q-2.723 6.524-5.436 13.053c-.115.276-.344.33-.643.33q-1.744.004-3.487.002c-.235 0-.284-.18-.207-.366.976-2.363 1.927-4.742 2.957-7.08q.006-.015 0-.023l-.008-.003q-.005 0-.011.009-2.304 3.554-4.613 7.106c-.193.298-.397.357-.766.357h-2.745c-.3 0-.38-.159-.33-.43q.648-3.54 1.307-7.077.003-.015-.011-.02-.015-.003-.02.01a5 5 0 0 1-.088.231q-1.421 3.46-2.858 6.913a.535.535 0 0 1-.528.36q-1.828.014-3.655.012c-.21 0-.266-.19-.2-.352l5.48-13.186c.152-.364.484-.344.89-.344h5.007q.378 0 .313.368-.459 2.659-.935 5.364a3 3 0 0 1-.17.604q-.045.118.019.008"/><path fill="red" d="m105.685 22.699 3.851-9.275q.016-.034.052-.03a3.6 3.6 0 0 1 1.454.528 17 17 0 0 1 2.422 1.854 45 45 0 0 0 2.113 1.801q.518.427 1.092.777c1.158.692 2.572.827 3.797.226q.05-.024.027.026a1.7 1.7 0 0 1-.182.315c-.874 1.192-2.195 2.043-3.548 2.61a9.15 9.15 0 0 1-5.298.567c-.625-.114-1.372-.35-2.005-.384-1.318-.069-2.593.357-3.747 1.008q-.05.029-.028-.023m5.818-4.152q.443-.152.885-.293c.499-.16.846-.335.954-.832.17-.787-.452-1.145-1.136-1.197-1.259-.095-2.474.557-3.31 1.45a3.9 3.9 0 0 0-.905 1.652c-.362 1.321 1.143 1.95 1.95.909.515-.665.815-1.568 1.174-2.327a2.04 2.04 0 0 1 .832-.903l.017-.016a.06.06 0 0 0 .005-.044l-.012-.02q-.04-.039-.128-.024c-1.329.23-1.575 2.288-2.38 3.3-.316.4-.937.467-1.029-.149-.196-1.303 1.582-3.184 2.762-3.529.517-.15 1.63-.259 1.608.6-.017.697-.753.915-1.39 1.193a.47.47 0 0 0-.234.234.07.07 0 0 0 .008.07c.138.187.356.411.41.61.127.464-.313.794-.723.892h-.014a.02.02 0 0 1-.012-.008.02.02 0 0 1-.007-.012v-.015c.183-.592-.723-.434-.437.069.237.418 1.024.148 1.314-.068q.428-.318.334-.855c-.059-.336-.306-.444-.545-.635q-.042-.033.009-.052"/><path fill="#f1f0fa" d="M111.494 18.6c.239.19.486.298.545.634q.094.537-.334.855c-.29.216-1.077.486-1.314.068-.286-.503.62-.661.437-.069v.015a.02.02 0 0 0 .007.012.02.02 0 0 0 .012.008h.014c.41-.098.85-.428.723-.893-.054-.198-.272-.423-.41-.608a.07.07 0 0 1-.008-.07.47.47 0 0 1 .234-.235c.636-.279 1.373-.496 1.39-1.193.022-.859-1.091-.75-1.608-.6-1.18.345-2.958 2.226-2.762 3.53.092.615.713.547 1.029.149.805-1.013 1.051-3.071 2.38-3.301q.087-.015.128.025.008.01.012.02a.05.05 0 0 1-.005.043l-.017.016q-.559.326-.832.903c-.359.759-.659 1.662-1.174 2.327-.807 1.04-2.312.412-1.95-.909a3.9 3.9 0 0 1 .905-1.652c.835-.893 2.051-1.545 3.31-1.45.684.052 1.306.41 1.136 1.197-.108.497-.455.673-.954.832q-.442.141-.885.293-.051.019-.009.052z"/></g></svg>