<svg xmlns="http://www.w3.org/2000/svg" xml:space="preserve" viewBox="0 0 985.766 197.034"><path d="M44.896 0C17.733 0 3.108 18.291 3.108 47.568c0 28.759 15.906 45.715 30.285 61.934 13.057 14.611 24.82 25.597 24.82 42.035 0 11.776-4.171 17.255-11.763 17.255-9.649 0-12.526-7.824-15.157-35.274L0 135.862v.845c2.657 35.11 9.391 60.326 46.206 60.326 29.004 0 45.196-16.466 45.196-47.323 0-30.831-16.192-45.987-31.104-61.907C47.772 74.228 36.542 63.27 36.542 44.161c0-8.86 2.603-14.884 8.858-14.884 7.061 0 10.986 3.108 12.554 30.831l31.635-2.89C87.23 20.391 77.554 0 44.896 0M156.47 1.854v137.689c0 22.733-2.099 29.249-10.727 29.249-8.873 0-10.686-7.06-10.686-29.768V1.854h-33.721v139.271c0 36.009 10.441 55.909 43.37 55.909 32.917 0 43.888-20.145 43.888-56.7V1.854zm105.292 0v59.562c0 13.303.245 34.211 1.553 53.048h-.505c-3.148-18.019-7.591-37.128-11.489-53.565L236.41 1.854h-31.594V195.18h28.963v-61.145c0-10.167-.246-39.962-1.527-52.502h.531c3.094 18.81 8.601 35.521 13.316 52.502l16.969 61.145h27.682V1.854zm79.434 29.495h4.688c16.997 0 19.068 14.394 19.068 67.168 0 51.984-2.072 68.203-18.809 68.203h-4.947M307.476 1.854V195.18h33.188c37.346 0 58.785-14.884 58.785-96.663 0-82.325-20.649-96.663-58.785-96.663zM445.45 76.572c1.037-7.305 1.568-13.602 2.345-21.425h.286c.75 7.578 1.281 14.12 2.317 21.425l6.283 52.012h-17.787M431.589 1.036 399.708 195.18h31.881l5.493-43.37h21.412l5.493 43.37h34.225L466.618 1.036zm131.978.818v59.562c0 13.303.244 34.211 1.554 53.048h-.532c-3.148-18.019-7.592-37.128-11.49-53.565L538.216 1.854h-31.622V195.18h29.005v-61.145c0-10.167-.286-39.962-1.595-52.502h.531c3.149 18.81 8.614 35.521 13.345 52.502l16.995 61.145h27.683V1.854zM652.379 0c-31.881 0-47.037 25.842-47.037 98.517 0 72.62 14.884 98.517 47.296 98.517 36.597 0 42.867-32.957 44.692-72.675l-31.88-1.309c-1.063 36.093-3.667 43.67-12.813 43.67-11.23 0-12.813-18.536-12.813-68.203 0-48.332 1.31-67.414 12.554-67.414 8.383 0 11.258 9.65 11.79 44.406l31.867-1.281C695.505 17.01 683.224 0 652.379 0m113.919 78.644h-24.807V31.349h35.533V1.854h-69.226V195.18h70.535v-28.46h-36.842v-60.354h24.807z"/><path d="M886.213 1.854h-84.382v29.495h25.352V195.18h33.965V31.349h25.065z" style="fill:#87a9a4"/><path d="m953.912 1.853-10.44 95.6c-1.595 14.911-3.162 32.411-4.212 48.876h-.531c-1.294-16.466-2.604-33.966-4.156-48.876l-10.7-95.6H889.88l30.313 194.116h35.03L985.766 1.853z" style="fill:#87a9a4" transform="translate(0 .001)"/></svg>