<svg xmlns="http://www.w3.org/2000/svg" viewBox="0 0 1459 372"><title>Shape</title><path d="M491.075 372c-125.635 0-251.271 0-377.05-.201-1.348-.478-2.587-.656-3.754-1.05l-7.455-2.525a71 71 0 0 1-3.658-1.427c-3.553-1.511-7.19-3.067-10.32-5.27-4.187-2.946-7.975-6.473-11.837-9.862-4.745-4.166-8.277-9.3-11.066-14.906-2.114-4.252-3.955-8.583-4.828-13.376-.877-4.81-2.833-9.412-3.935-14.193l-1.16-5.546-2.003-11.163q-1.355-7.4-2.64-14.815c-.245-1.419-.26-2.883-.568-4.285l-2.5-10.75c-.733-3.543-1.31-7.12-1.883-10.695-.217-1.35-.075-2.766-.363-4.095l-2.391-9.974c-.738-3.529-1.316-7.093-1.887-10.654-.23-1.431-.101-2.929-.404-4.339l-2.399-10.023c-.736-3.513-1.316-7.061-1.886-10.607-.23-1.433-.101-2.932-.4-4.345l-2.379-10.117c-.715-3.55-1.241-7.138-1.789-10.72l-.232-2.899c-.04-.482-.098-.96-.201-1.429l-2.456-10.073c-.748-3.534-1.325-7.106-1.897-10.674-.23-1.431-.09-2.93-.393-4.34l-2.388-9.934c-.735-3.597-1.27-7.236-1.836-10.865-.21-1.35-.124-2.756-.415-4.084l-2.415-10.129-1.844-10.855-2.308-10.119-1.941-11.435-2.716-13.5-1.78-11.002L6.281 38.05c-.204-1.09.073-2.275-.163-3.352-.742-3.392-1.787-6.725-2.412-10.136L1.486 10.32C1.417 9.921.514 9.663 0 9.34 0 6.226 0 3.113.43.134l2.124.324c.3.032.586.049.87.05L164.683.495l.996-.09L167.672 0s.26 0 .389.227l.108 1.957c.015.296.04.58.098.857.795 3.81 1.757 7.587 2.493 11.407.745 3.869 1.318 7.771 1.916 11.666.169 1.099.033 2.25.254 3.333.79 3.869 1.764 7.701 2.498 11.58.718 3.792 1.187 7.63 1.838 11.435l2.331 12.919c.278 1.594.335 3.228.655 4.812l2.423 11.317c.702 3.727 1.23 7.487 1.787 11.24.2 1.35.136 2.744.402 4.077.784 3.923 1.809 7.803 2.488 11.743l2.191 14.846c.87 4.972 2.044 9.89 3.004 14.848.21 1.087-.094 2.276.132 3.357.76 3.632 1.765 7.215 2.464 10.858.715 3.728 1.201 7.501 1.746 11.261.22 1.517.206 3.075.513 4.57.747 3.645 1.74 7.242 2.408 10.9.737 4.026 1.236 8.098 1.81 12.154.168 1.182.134 2.4.376 3.563.797 3.817 1.783 7.598 2.498 11.43.695 3.722 1.154 7.49 1.697 11.24.183 1.262.214 2.551.473 3.795.803 3.866 1.79 7.696 2.501 11.578.708 3.868 1.185 7.78 1.726 11.677.2 1.436.165 2.914.464 4.324l2.484 10.866c.734 3.792 1.25 7.627 1.811 11.45.21 1.435.14 2.92.437 4.331l1.916 7.897c.412 1.952.597 3.951.883 5.93l.696-.098V0l.563.04.473.094c1.198.217 2.053.373 2.907.373L381.15.497c.997-.001 1.994-.324 2.99-.497.231 0 .462 0 .729.164.138.263.24.363.333.698l-.017 288.626.147 1.833.244-.024.592-3.524.76-3.817c.115-.61.222-1.212.314-1.816.576-3.775.955-7.585 1.657-11.336l2.455-10.686c.693-3.687 1.103-7.428 1.614-11.148.231-1.69.287-3.41.634-5.073.753-3.613 1.77-7.173 2.44-10.799.717-3.88 1.162-7.812 1.72-11.721.206-1.434.309-2.887.607-4.3.748-3.553 1.696-7.066 2.35-10.634l1.77-11.667 2.911-14.699c1.098-5.936 2.11-11.888 3.103-17.842a711 711 0 0 0 2.09-13.474c.137-.933-.095-1.93.105-2.84.778-3.545 1.822-7.039 2.463-10.606l.622-3.993 1.007-8.028c.178-1.348.275-2.714.558-4.04.802-3.77 1.801-7.502 2.496-11.29l.88-5.68.765-5.702c.178-1.262.3-2.535.556-3.78.809-3.943 1.745-7.86 2.487-11.814.712-3.8 1.257-7.631 1.848-11.453.208-1.35.239-2.731.518-4.063 1.085-5.176 2.348-10.317 3.326-15.513l.632-3.877 1.026-7.801c.176-1.262.308-2.534.569-3.778.799-3.815 1.74-7.601 2.457-11.43l1.028-6.091L436.57 0l.563.04.473.094c1.198.217 2.053.373 2.908.373L601.25.497c.996-.001 1.993-.324 2.99-.497.23 0 .461 0 .759.207a87 87 0 0 1-.759 5.644c-.647 3.867-1.268 7.74-2 11.59l-2.64 13.04c-.63 3.394-1.081 6.822-1.61 10.235-.233 1.512-.374 3.044-.708 4.533-.743 3.324-1.704 6.603-2.347 9.945l-.877 5.372-.769 5.392c-.24 1.589-.426 3.19-.756 4.76-.73 3.47-1.606 6.908-2.289 10.386l-1.679 9.847-2.462 10.58-1.962 11.684-2.714 13.562-.852 5.32-.77 5.334c-.178 1.176-.292 2.367-.553 3.525-.81 3.596-1.771 7.16-2.493 10.773l-1.947 11.366-2.742 13.467a1053 1053 0 0 0-3.096 16.286c-.763 4.225-1.434 8.468-2.087 12.711-.144.93.14 1.941-.08 2.84l-1.723 6.29a53 53 0 0 0-.761 3.165l-.62 3.525-1.001 7.1c-.227 1.52-.401 3.052-.722 4.552-.754 3.532-1.671 7.032-2.356 10.576l-1.835 11.038-2.83 13.574c-.664 3.555-1.098 7.153-1.618 10.734-.207 1.432-.248 2.9-.572 4.302-1.133 4.901-2.446 9.762-3.522 14.675l-3.139 15.673-1.389 6.595c-.496 2.19-1.069 4.353-1.847 6.437-2.004 5.364-4.378 10.663-7.242 15.615-3.82 6.604-9.48 11.727-15.501 16.316-3.41 2.6-7.011 5.19-10.926 6.828-5.541 2.319-11.456 3.742-17.195 5.597-.38.123-.626.663-.934 1.009M940.97 0c.544.342.809.925 1.165.988 4.307.763 8.787.951 12.904 2.278 5.38 1.735 10.558 4.181 15.673 6.635 6.938 3.327 12.354 8.635 17.322 14.377 1.132 1.308 2.122 2.744 3.075 4.206l1.415 2.197c1.46 2.261 3.069 4.49 4.104 6.947 1.786 4.238 3.389 8.58 4.689 12.99 2.135 7.243 2.702 14.7 2.683 22.254l-.048 45.531.013 45.531c0 3.615-.038 3.33-3.517 3.75-3.848.464-7.618 1.555-11.435 2.301-1.421.278-2.888.315-4.324.528-3.84.57-7.697 1.07-11.51 1.798-3.66.699-7.268 1.679-10.913 2.473l-1.887.296-1.904.229c-3.795.543-7.608.983-11.377 1.673-3.839.702-7.627 1.679-11.449 2.48l-2.014.323-9.672 1.246a76 76 0 0 0-3.795.634c-5.158 1.015-10.23 2.481-15.394 3.459-4.916.93-9.919 1.393-14.855 2.23-3.85.654-7.65 1.596-11.484 2.352l-2.396.383-2.41.319c-3.775.533-7.569.956-11.32 1.621-4.63.82-9.215 1.898-13.84 2.757l-11.465 1.9c-3.955.737-7.877 1.645-11.822 2.436l-2.014.334-2.026.275c-3.819.54-7.657.972-11.454 1.636l-14.324 2.787-11.996 1.883c-3.764.701-7.477 1.675-11.227 2.462-1.412.296-2.864.394-4.296.597-3.71.525-7.442.934-11.122 1.622-3.617.676-7.168 1.695-10.773 2.448-1.664.348-3.388.396-5.08.622-3.807.51-7.635.919-11.411 1.606-4.905.892-9.764 2.035-14.653 3.018l-1.831.257a3.7 3.7 0 0 0-.92.308h288.318c3.192 0 3.548.001 3.588 2.582l.009 150.253c-105.137.243-210.28.243-315.567.04l-.338-.506q-.058-.077-.12-.09c-5.986-1.123-11.854-2.671-17.306-5.44l-6.688-3.344c-2.208-1.153-4.356-2.39-6.331-3.854-4.333-3.211-8.286-7.08-11.833-11.16-2.799-3.218-5.049-7.033-6.96-10.872-1.972-3.96-3.187-8.29-4.83-12.42-2.013-5.06-2.989-10.307-2.99-15.728L631 0l.282.04q.126.029.278.094l1.998.325c.296.03.581.048.866.048l298.088-.01c.996 0 1.993-.324 2.99-.497zm517.916 2.852c-.516.519-1.28.64-1.511 1.059a1784 1784 0 0 0-10.707 19.616l-9.463 17.77c-3.357 6.182-6.89 12.27-10.188 18.482l-8.07 15.983c-2.77 5.254-5.753 10.396-8.614 15.602l-8.023 14.716-12.066 21.646c-2.677 4.906-5.148 9.925-7.752 14.872l-3.65 6.877-3.695 6.854c-1.695 3.122-3.402 6.242-5.24 9.28-.387.638-1.363 1.287-2.078 1.3-5.952.103-11.909.149-17.857-.028-.983-.03-2.34-1.007-2.832-1.92l-13.126-24.95-13.272-23.744-17.284-32.776c-3.742-6.942-7.9-13.658-11.675-20.582-2.975-5.458-5.587-11.114-8.48-16.619l-3.647-6.696-11.042-19.917c-2.947-5.366-5.912-10.724-8.785-16.13-.492-.926-.563-2.076-.829-3.335.23-.212.46-.212 1.033-.078l1.169.309c.153.03.292.045.432.045l30.122-.002c.646-.001 1.292-.317 1.939-.486.23 0 .46 0 .703.14l3.386 6.112 9.81 19.145 8.784 16.316 10.221 20.064 7.718 14.536 10.304 20.115 8.176 15.489c1.959 3.77 3.826 7.587 6.026 11.965L1423.155 0l.562.04 1.64.403c.153.03.293.045.433.045l30.121-.002c.647-.001 1.293-.317 1.939-.486 2.148.143.53 1.793 1.036 2.852M1243.556.443c.148.192.425.384.425.577l.019 28.186h-84.1v137.6l-1.773.152q-.389.03-.762.03c-9.004.012-18.007.027-27.01-.023-.87-.004-1.738-.435-2.546-1.069l.263-2.27c.03-.328.048-.642.048-.956.012-43.193.015-86.387-.013-129.58 0-1.176-.358-2.352-.549-3.527h-83.476l-.024-19.716c-.012-3.218-.03-6.425-.058-9.659.1-.154.235-.205.485-.183l.47.086c1.548.217 2.751.372 3.954.373z"/></svg>